<svg xmlns="http://www.w3.org/2000/svg" xmlns:xlink="http://www.w3.org/1999/xlink" width="1460" height="611" viewBox="0 0 1460 611">
  <defs>
    <clipPath id="clip-path">
      <rect id="Light_Gradient" data-name="Light Gradient" width="1460" height="611" transform="translate(0 97)" fill="#2a1f1f"/>
    </clipPath>
  </defs>
  <g id="Mask_Group_28" data-name="Mask Group 28" transform="translate(0 -97)" clip-path="url(#clip-path)">
    <g id="Group_68" data-name="Group 68" transform="translate(-192.903 772.707)" opacity="0.34">
      <line id="Line_1" data-name="Line 1" x1="495.197" y2="495.197" transform="translate(-1348.5 -675.707)" fill="none" stroke="red" stroke-width="4"/>
      <line id="Line_1-2" data-name="Line 1" x1="495.197" y2="495.197" transform="translate(-1325.309 -675.707)" fill="none" stroke="red" stroke-width="4"/>
      <line id="Line_1-3" data-name="Line 1" x1="495.197" y2="495.197" transform="translate(-1302.118 -675.707)" fill="none" stroke="red" stroke-width="4"/>
      <line id="Line_1-4" data-name="Line 1" x1="495.197" y2="495.197" transform="translate(-1278.927 -675.707)" fill="none" stroke="red" stroke-width="4"/>
      <line id="Line_1-5" data-name="Line 1" x1="495.197" y2="495.197" transform="translate(-1255.736 -675.707)" fill="none" stroke="red" stroke-width="4"/>
      <line id="Line_1-6" data-name="Line 1" x1="495.197" y2="495.197" transform="translate(-1232.545 -675.707)" fill="none" stroke="red" stroke-width="4"/>
      <line id="Line_1-7" data-name="Line 1" x1="495.197" y2="495.197" transform="translate(-1209.354 -675.707)" fill="none" stroke="red" stroke-width="4"/>
      <line id="Line_1-8" data-name="Line 1" x1="495.197" y2="495.197" transform="translate(-1186.163 -675.707)" fill="none" stroke="red" stroke-width="4"/>
      <line id="Line_1-9" data-name="Line 1" x1="495.197" y2="495.197" transform="translate(-1162.972 -675.707)" fill="none" stroke="red" stroke-width="4"/>
      <line id="Line_1-10" data-name="Line 1" x1="495.197" y2="495.197" transform="translate(-1139.781 -675.707)" fill="none" stroke="red" stroke-width="4"/>
      <line id="Line_1-11" data-name="Line 1" x1="495.197" y2="495.197" transform="translate(-1116.59 -675.707)" fill="none" stroke="red" stroke-width="4"/>
      <line id="Line_1-12" data-name="Line 1" x1="495.197" y2="495.197" transform="translate(-1093.398 -675.707)" fill="none" stroke="red" stroke-width="4"/>
      <line id="Line_1-13" data-name="Line 1" x1="495.197" y2="495.197" transform="translate(-1070.207 -675.707)" fill="none" stroke="red" stroke-width="4"/>
      <line id="Line_1-14" data-name="Line 1" x1="495.197" y2="495.197" transform="translate(-1047.017 -675.707)" fill="none" stroke="red" stroke-width="4"/>
      <line id="Line_1-15" data-name="Line 1" x1="495.197" y2="495.197" transform="translate(-1023.825 -675.707)" fill="none" stroke="red" stroke-width="4"/>
      <line id="Line_1-16" data-name="Line 1" x1="495.197" y2="495.197" transform="translate(-1000.634 -675.707)" fill="none" stroke="red" stroke-width="4"/>
      <line id="Line_1-17" data-name="Line 1" x1="495.197" y2="495.197" transform="translate(-977.443 -675.707)" fill="none" stroke="red" stroke-width="4"/>
      <line id="Line_1-18" data-name="Line 1" x1="495.197" y2="495.197" transform="translate(-954.252 -675.707)" fill="none" stroke="red" stroke-width="4"/>
      <line id="Line_1-19" data-name="Line 1" x1="495.197" y2="495.197" transform="translate(-931.061 -675.707)" fill="none" stroke="red" stroke-width="4"/>
      <line id="Line_1-20" data-name="Line 1" x1="495.197" y2="495.197" transform="translate(-907.87 -675.707)" fill="none" stroke="red" stroke-width="4"/>
      <line id="Line_1-21" data-name="Line 1" x1="495.197" y2="495.197" transform="translate(-884.679 -675.707)" fill="none" stroke="red" stroke-width="4"/>
      <line id="Line_1-22" data-name="Line 1" x1="495.197" y2="495.197" transform="translate(-861.488 -675.707)" fill="none" stroke="red" stroke-width="4"/>
      <line id="Line_1-23" data-name="Line 1" x1="495.197" y2="495.197" transform="translate(-838.297 -675.707)" fill="none" stroke="red" stroke-width="4"/>
      <line id="Line_1-24" data-name="Line 1" x1="495.197" y2="495.197" transform="translate(-815.106 -675.707)" fill="none" stroke="red" stroke-width="4"/>
      <line id="Line_1-25" data-name="Line 1" x1="495.197" y2="495.197" transform="translate(-791.915 -675.707)" fill="none" stroke="red" stroke-width="4"/>
      <line id="Line_1-26" data-name="Line 1" x1="495.197" y2="495.197" transform="translate(-768.724 -675.707)" fill="none" stroke="red" stroke-width="4"/>
      <line id="Line_1-27" data-name="Line 1" x1="495.197" y2="495.197" transform="translate(-745.533 -675.707)" fill="none" stroke="red" stroke-width="4"/>
      <line id="Line_1-28" data-name="Line 1" x1="495.197" y2="495.197" transform="translate(-722.342 -675.707)" fill="none" stroke="red" stroke-width="4"/>
      <line id="Line_1-29" data-name="Line 1" x1="495.197" y2="495.197" transform="translate(-699.151 -675.707)" fill="none" stroke="red" stroke-width="4"/>
      <line id="Line_1-30" data-name="Line 1" x1="495.197" y2="495.197" transform="translate(-675.96 -675.707)" fill="none" stroke="red" stroke-width="4"/>
      <line id="Line_1-31" data-name="Line 1" x1="495.197" y2="495.197" transform="translate(-652.769 -675.707)" fill="none" stroke="red" stroke-width="4"/>
      <line id="Line_1-32" data-name="Line 1" x1="495.197" y2="495.197" transform="translate(-629.578 -675.707)" fill="none" stroke="red" stroke-width="4"/>
      <line id="Line_1-33" data-name="Line 1" x1="495.197" y2="495.197" transform="translate(-606.387 -675.707)" fill="none" stroke="red" stroke-width="4"/>
      <line id="Line_1-34" data-name="Line 1" x1="495.197" y2="495.197" transform="translate(-583.196 -675.707)" fill="none" stroke="red" stroke-width="4"/>
      <line id="Line_1-35" data-name="Line 1" x1="495.197" y2="495.197" transform="translate(-560.005 -675.707)" fill="none" stroke="red" stroke-width="4"/>
      <line id="Line_1-36" data-name="Line 1" x1="495.197" y2="495.197" transform="translate(-536.813 -675.707)" fill="none" stroke="red" stroke-width="4"/>
      <line id="Line_1-37" data-name="Line 1" x1="495.197" y2="495.197" transform="translate(-513.622 -675.707)" fill="none" stroke="red" stroke-width="4"/>
      <line id="Line_1-38" data-name="Line 1" x1="495.197" y2="495.197" transform="translate(-490.431 -675.707)" fill="none" stroke="red" stroke-width="4"/>
      <line id="Line_1-39" data-name="Line 1" x1="495.197" y2="495.197" transform="translate(-467.24 -675.707)" fill="none" stroke="red" stroke-width="4"/>
      <line id="Line_1-40" data-name="Line 1" x1="495.197" y2="495.197" transform="translate(-444.049 -675.707)" fill="none" stroke="red" stroke-width="4"/>
      <line id="Line_1-41" data-name="Line 1" x1="495.197" y2="495.197" transform="translate(-420.858 -675.707)" fill="none" stroke="red" stroke-width="4"/>
      <line id="Line_1-42" data-name="Line 1" x1="495.197" y2="495.197" transform="translate(-397.667 -675.707)" fill="none" stroke="red" stroke-width="4"/>
      <line id="Line_1-43" data-name="Line 1" x1="495.197" y2="495.197" transform="translate(-374.476 -675.707)" fill="none" stroke="red" stroke-width="4"/>
      <line id="Line_1-44" data-name="Line 1" x1="495.197" y2="495.197" transform="translate(-351.285 -675.707)" fill="none" stroke="red" stroke-width="4"/>
      <line id="Line_1-45" data-name="Line 1" x1="495.197" y2="495.197" transform="translate(-328.094 -675.707)" fill="none" stroke="red" stroke-width="4"/>
      <line id="Line_1-46" data-name="Line 1" x1="495.197" y2="495.197" transform="translate(-304.903 -675.707)" fill="none" stroke="red" stroke-width="4"/>
      <line id="Line_1-47" data-name="Line 1" x1="495.197" y2="495.197" transform="translate(-281.712 -675.707)" fill="none" stroke="red" stroke-width="4"/>
      <line id="Line_1-48" data-name="Line 1" x1="495.197" y2="495.197" transform="translate(-258.521 -675.707)" fill="none" stroke="red" stroke-width="4"/>
      <line id="Line_1-49" data-name="Line 1" x1="495.197" y2="495.197" transform="translate(-235.33 -675.707)" fill="none" stroke="red" stroke-width="4"/>
      <line id="Line_1-50" data-name="Line 1" x1="495.197" y2="495.197" transform="translate(-212.139 -675.707)" fill="none" stroke="red" stroke-width="4"/>
      <line id="Line_1-51" data-name="Line 1" x1="495.197" y2="495.197" transform="translate(-188.948 -675.707)" fill="none" stroke="red" stroke-width="4"/>
      <line id="Line_1-52" data-name="Line 1" x1="495.197" y2="495.197" transform="translate(-165.757 -675.707)" fill="none" stroke="red" stroke-width="4"/>
      <line id="Line_1-53" data-name="Line 1" x1="495.197" y2="495.197" transform="translate(-142.566 -675.707)" fill="none" stroke="red" stroke-width="4"/>
      <line id="Line_1-54" data-name="Line 1" x1="495.197" y2="495.197" transform="translate(-119.375 -675.707)" fill="none" stroke="red" stroke-width="4"/>
      <line id="Line_1-55" data-name="Line 1" x1="495.197" y2="495.197" transform="translate(-96.184 -675.707)" fill="none" stroke="red" stroke-width="4"/>
      <line id="Line_1-56" data-name="Line 1" x1="495.197" y2="495.197" transform="translate(-72.993 -675.707)" fill="none" stroke="red" stroke-width="4"/>
      <line id="Line_1-57" data-name="Line 1" x1="495.197" y2="495.197" transform="translate(-49.802 -675.707)" fill="none" stroke="red" stroke-width="4"/>
      <line id="Line_1-58" data-name="Line 1" x1="495.197" y2="495.197" transform="translate(-26.611 -675.707)" fill="none" stroke="red" stroke-width="4"/>
      <line id="Line_1-59" data-name="Line 1" x1="495.197" y2="495.197" transform="translate(-3.42 -675.707)" fill="none" stroke="red" stroke-width="4"/>
      <line id="Line_1-60" data-name="Line 1" x1="495.197" y2="495.197" transform="translate(19.771 -675.707)" fill="none" stroke="red" stroke-width="4"/>
      <line id="Line_1-61" data-name="Line 1" x1="495.197" y2="495.197" transform="translate(42.962 -675.707)" fill="none" stroke="red" stroke-width="4"/>
      <line id="Line_1-62" data-name="Line 1" x1="495.197" y2="495.197" transform="translate(66.154 -675.707)" fill="none" stroke="red" stroke-width="4"/>
      <line id="Line_1-63" data-name="Line 1" x1="495.197" y2="495.197" transform="translate(89.344 -675.707)" fill="none" stroke="red" stroke-width="4"/>
      <line id="Line_1-64" data-name="Line 1" x1="495.197" y2="495.197" transform="translate(112.535 -675.707)" fill="none" stroke="red" stroke-width="4"/>
      <line id="Line_1-65" data-name="Line 1" x1="495.197" y2="495.197" transform="translate(135.726 -675.707)" fill="none" stroke="red" stroke-width="4"/>
      <line id="Line_1-66" data-name="Line 1" x1="495.197" y2="495.197" transform="translate(158.918 -675.707)" fill="none" stroke="red" stroke-width="4"/>
      <line id="Line_1-67" data-name="Line 1" x1="495.197" y2="495.197" transform="translate(182.109 -675.707)" fill="none" stroke="red" stroke-width="4"/>
    </g>
  </g>
</svg>
