<?xml version="1.0" encoding="UTF-8"?>
<!DOCTYPE svg PUBLIC "-//W3C//DTD SVG 1.1//EN" "http://www.w3.org/Graphics/SVG/1.1/DTD/svg11.dtd">
<svg xmlns="http://www.w3.org/2000/svg" version="1.1" width="60px" height="105px" style="shape-rendering:geometricPrecision; text-rendering:geometricPrecision; image-rendering:optimizeQuality; fill-rule:evenodd; clip-rule:evenodd" xmlns:xlink="http://www.w3.org/1999/xlink">
<g><path style="opacity:0.913" fill="#454645" d="M 5.5,-0.5 C 21.5,-0.5 37.5,-0.5 53.5,-0.5C 55.8333,1.16667 57.8333,3.16667 59.5,5.5C 59.5,36.5 59.5,67.5 59.5,98.5C 57.8333,100.833 55.8333,102.833 53.5,104.5C 37.5,104.5 21.5,104.5 5.5,104.5C 3.16667,102.833 1.16667,100.833 -0.5,98.5C -0.5,67.5 -0.5,36.5 -0.5,5.5C 1.16667,3.16667 3.16667,1.16667 5.5,-0.5 Z M 9.5,7.5 C 11.1992,7.33982 12.8659,7.50649 14.5,8C 13.9193,18.2503 18.9193,23.0837 29.5,22.5C 40.0807,23.0837 45.0807,18.2503 44.5,8C 47.025,7.10407 49.1917,7.60407 51,9.5C 51.6667,37.8333 51.6667,66.1667 51,94.5C 50.5,95 50,95.5 49.5,96C 36.1667,96.6667 22.8333,96.6667 9.5,96C 9,95.5 8.5,95 8,94.5C 7.33333,66.1667 7.33333,37.8333 8,9.5C 8.71719,8.9558 9.21719,8.28913 9.5,7.5 Z M 22.5,7.5 C 27.1667,7.5 31.8333,7.5 36.5,7.5C 37.2716,12.894 34.9383,14.894 29.5,13.5C 24.0617,14.894 21.7284,12.894 22.5,7.5 Z"/></g>
<g><path style="opacity:0.818" fill="#454645" d="M 20.5,77.5 C 26.5092,77.3338 32.5092,77.5005 38.5,78C 42.5,80.6667 42.5,83.3333 38.5,86C 32.5,86.6667 26.5,86.6667 20.5,86C 16.6296,83.1301 16.6296,80.2968 20.5,77.5 Z"/></g>
</svg>
