<svg width="9" height="9" viewBox="0 0 9 9" fill="none" xmlns="http://www.w3.org/2000/svg">
<path d="M8.4375 4.49023C8.4375 4.76367 8.22266 4.95898 7.96875 4.95898H4.84375V8.08398C4.84375 8.35742 4.62891 8.57227 4.375 8.57227C4.10156 8.57227 3.90625 8.35742 3.90625 8.08398V4.95898H0.78125C0.507812 4.95898 0.3125 4.76367 0.3125 4.50977C0.3125 4.23633 0.507812 4.02148 0.78125 4.02148H3.90625V0.896484C3.90625 0.642578 4.10156 0.447266 4.375 0.447266C4.62891 0.447266 4.84375 0.642578 4.84375 0.896484V4.02148H7.96875C8.22266 4.02148 8.4375 4.23633 8.4375 4.49023Z" fill="#1daba1"/>
</svg>
