<?xml version="1.0" encoding="UTF-8"?>
<svg id="Layer_1" data-name="Layer 1" xmlns="http://www.w3.org/2000/svg" viewBox="0 0 500 500">
  <defs>
    <style>
      .cls-1 {
        fill: #010101;
      }
    </style>
  </defs>
  <path class="cls-1" d="M90.37,246.06c.45-4.45,2.93-13.19,4.46-17.62,4.33-12.54,12.28-24.44,22.1-33.25,27.39,25.01,68.06,29.1,100.1,10.3,5.07-2.97,9.54-6.82,14.26-10.28,9.86,9.52,18.31,22.1,22.38,35.29.93,3,3.53,12.6,3.53,15.18v21.33H90.37c.49-6.74-.67-14.34,0-20.96Z"/>
  <polygon class="cls-1" points="90.37 290.22 112.81 290.22 112.81 354.6 194.36 354.6 180.91 340.75 196.98 324.67 238.48 366.2 196.98 407.73 180.91 391.65 194.36 377.81 90.37 377.8 90.37 290.22"/>
  <path class="cls-1" d="M353.55,162.44c80.91-7.79,123.01,91,61.51,143.13-48.11,40.78-123.76,11.11-132.34-51-6.08-44.06,26.02-87.83,70.83-92.14Z"/>
  <path class="cls-1" d="M473.41,423.46h-220.7c-2.09-36.55,10.93-71,38.51-95.08,1.3-1.14,5.87-5.2,7.13-4.83,1.38.4,11.18,8.04,14.19,9.74,36.46,20.44,83.68,17.09,115.7-10.07,31.94,22.41,48.12,61.5,45.16,100.26Z"/>
  <path class="cls-1" d="M169.52,70.38c49.1-3.47,82.77,49.37,58.89,92.61-21.89,39.65-78.64,43.26-104.99,6.21-28.35-39.85-2.49-95.39,46.1-98.82Z"/>
</svg>