<?xml version="1.0" encoding="UTF-8"?>
<svg xmlns="http://www.w3.org/2000/svg" version="1.1" viewBox="0 0 110 32.55">
  <defs>
    <style>
      .cls-1 {
        fill: #fcfdfc;
      }

      .cls-2 {
        fill: #f1822b;
      }

      .cls-3 {
        fill: #028855;
      }

      .cls-4 {
        fill: #00784a;
      }
    </style>
  </defs>
  <!-- Generator: Adobe Illustrator 28.6.0, SVG Export Plug-In . SVG Version: 1.2.0 Build 709)  -->
  <g>
    <g id="Layer_1">
      <g id="Layer_2">
        <g id="Layer_1-2">
          <rect class="cls-4" width="110" height="32.55"/>
          <path class="cls-1" d="M6.48,4.92c.07.04.16.03.24.03,1.88,0,3.77,0,5.65,0,.48,0,.97.04,1.45.12.68.12,1.31.33,1.85.77.67.55.96,1.29,1.06,2.13.26,2.04-.89,3.46-2.31,4.25-.14.08-.17.15-.11.29.59,1.31,1.22,2.59,1.88,3.87.4.78.76,1.58,1.24,2.32.43.66.97,1.21,1.59,1.69.38.3.84.49,1.32.57.37.06.74.16,1.12.14.07,0,.15-.03.15.1,0,.11-.05.14-.16.15-.38.04-.77.03-1.15.02-.94-.01-1.88-.11-2.77-.44-.97-.35-1.79-.94-2.48-1.7-.22-.25-.38-.55-.57-.83-.32-.5-.55-1.04-.81-1.56-.33-.68-.61-1.37-.94-2.05-.16-.33-.28-.68-.45-1-.23-.44-.59-.66-1.08-.68-.23-.01-.45,0-.68,0-.07,0-.11.02-.11.1.02,1.55-.05,3.09.05,4.64,0,.09.02.17.04.25.07.31.26.49.57.56.21.05.42.07.63.11.06,0,.11.01.11.09,0,.14,0,.27,0,.4,0,.07-.04.09-.11.09-.04,0-.09,0-.13,0-1.65,0-3.3,0-4.95,0-.13,0-.18-.04-.16-.16,0-.05,0-.1,0-.15,0-.27,0-.27.27-.31.15-.02.3-.05.45-.08.33-.07.53-.27.59-.6.06-.3.08-.61.08-.92V7.18c0-.24-.02-.49-.04-.73-.04-.46-.21-.7-.56-.78-.17-.04-.35-.07-.52-.1-.28-.04-.32-.06-.29-.33.01-.1,0-.21.03-.32ZM10.42,9.12h0v1.49c0,.5,0,1.01,0,1.51,0,.12.02.17.16.17.39-.02.79,0,1.18-.02,1.15-.07,1.96-.72,2.27-1.82.2-.68.22-1.38.14-2.08-.07-.67-.3-1.29-.78-1.78-.77-.79-1.72-.92-2.75-.71-.16.03-.22.09-.21.26,0,.99,0,1.99,0,2.98Z"/>
          <path class="cls-1" d="M35.5,13.96c0-1.1,0-2.2,0-3.29,0-.14-.03-.17-.17-.17-.93,0-1.87,0-2.8,0-.12,0-.17.02-.17.16,0,1.69,0,3.37.02,5.06,0,.6.04,1.2.24,1.78.23.67.67.99,1.37,1.01.32,0,.64-.02.94-.13.11-.04.15-.02.17.1,0,.09.03.18.07.27.07.15-.02.23-.12.28-.56.26-1.11.54-1.73.65-.28.05-.55.14-.83.13-.33-.01-.67-.02-1-.13-.49-.16-.85-.46-1.09-.92-.23-.44-.29-.92-.36-1.4-.07-.53-.04-1.05-.04-1.58,0-1.7,0-3.4,0-5.1,0-.11.03-.17-.17-.2-.39-.05-.79-.07-1.18-.16-.1-.02-.17-.04-.16-.17,0-.12.01-.25,0-.37,0-.08.06-.08.11-.08.41-.06.82-.12,1.24-.17.12-.01.15-.06.15-.17,0-.21,0-.43,0-.64,0-.13.05-.2.13-.28.47-.45.97-.85,1.48-1.26.21-.17.45-.31.69-.45.14-.08.3.04.29.22-.04.43-.09.87-.13,1.3-.03.37-.05.73-.08,1.1,0,.11.01.17.14.17.94,0,1.89,0,2.83,0,.11,0,.15-.05.15-.16,0-.23,0-.47,0-.7,0-.08.03-.12.09-.18.65-.62,1.36-1.16,2.08-1.69.1-.07.22-.13.33-.07s.1.18.09.29c-.09.77-.16,1.55-.21,2.33,0,.15.04.18.17.2.6.05,1.21.12,1.81.18.13.01.17.06.16.18,0,.06,0,.12,0,.18,0,.24-.06.29-.31.27-.04,0-.07,0-.11,0-.52.08-1.05.11-1.57.13-.11,0-.16.03-.16.15.02,1.83-.03,3.67.03,5.5.02.46.06.92.22,1.36.27.76.88,1.12,1.67,1.02.23-.03.47-.05.69-.14.07-.03.11,0,.11.07,0,0,0,.01,0,.02.03.15.12.31.09.44-.03.14-.24.16-.37.22-.8.42-1.64.67-2.55.67-.71,0-1.3-.22-1.73-.82-.29-.41-.38-.88-.45-1.36-.07-.46-.08-.92-.08-1.38,0-.75,0-1.51,0-2.26Z"/>
          <path class="cls-1" d="M87.44,10.49v5.72c0,.52.02,1.04.14,1.55.06.24.13.47.28.68.11.17.29.29.49.35.12.03.16.09.14.2-.01.09-.01.18,0,.28.03.16-.08.19-.19.19-.83.01-1.67.02-2.5.04-.32,0-.35-.02-.45-.33,0-.02-.01-.05-.02-.07-.04-.09-.06-.2-.15-.27-.13-.09-.17.06-.25.1-.33.17-.64.41-.99.54-.44.16-.9.29-1.38.28-.42,0-.84-.05-1.25-.16-.41-.11-.79-.28-1.15-.51-.7-.46-1.2-1.1-1.54-1.87-.41-.94-.47-1.93-.41-2.94.02-.51.11-1.01.26-1.5.18-.6.48-1.16.88-1.64.74-.9,1.71-1.43,2.83-1.72.9-.24,1.84-.27,2.75-.1.14.03.16,0,.16-.14,0-.86,0-1.72,0-2.58,0-.43,0-.86-.11-1.28-.13-.5-.4-.58-.88-.48-.15.03-.21.01-.22-.14-.01-.42-.01-.43.4-.52.98-.21,1.96-.4,2.96-.41.17,0,.21.05.21.21,0,2.17,0,4.34,0,6.51h0ZM85.08,14.45v-3.5c0-.07.02-.15-.04-.21-.34-.35-.72-.62-1.23-.69-1.2-.15-2.18.38-2.67,1.53-.68,1.62-.61,3.24.09,4.84.35.8.9,1.44,1.7,1.81.66.31,1.33.35,1.99-.03.12-.07.16-.16.16-.29,0-1.15,0-2.31,0-3.46h0Z"/>
          <path class="cls-1" d="M53.71,10.43c.4-.42.88-.75,1.41-.97.36-.15.74-.23,1.14-.27.74-.07,1.47-.03,2.14.32.31.16.55.41.74.7.39.59.54,1.25.61,1.94.07.66.04,1.33.04,1.99,0,1.14,0,2.28,0,3.42,0,.28.02.56.09.83.06.2.21.32.4.38.18.05.37.07.56.08.11,0,.16.03.16.16,0,.43,0,.43-.42.43-1.4,0-2.8,0-4.2,0-.1,0-.19-.08-.19-.18,0,0,0,0,0-.01.01-.37,0-.37.37-.42.66-.09.77-.21.83-.87.01-.14.02-.27.02-.41,0-1.3,0-2.6,0-3.9,0-.63-.03-1.25-.22-1.86-.14-.46-.35-.88-.79-1.12-.43-.24-.89-.3-1.39-.2-.49.1-.86.33-1.19.68-.06.06-.09.13-.08.21,0,2.11,0,4.22,0,6.33,0,.18.02.36.05.53.05.3.29.53.59.57.1.02.21.03.31.04.26.03.26.03.26.3q0,.3-.29.3c-1.42,0-2.85,0-4.27,0-.18,0-.21-.05-.21-.21,0-.35,0-.35.34-.4.08,0,.16-.02.24-.03.33-.05.57-.33.57-.66,0-.13.01-.27.03-.4,0-.02,0-.04,0-.06,0-1.95,0-3.9,0-5.85,0-.25,0-.51-.06-.76-.03-.13-.08-.26-.14-.39-.08-.16-.22-.24-.4-.24-.17,0-.33.03-.49.09-.09.03-.14.02-.13-.09,0-.02,0-.04,0-.05,0-.46,0-.45.44-.61.73-.25,1.48-.44,2.25-.55.24-.04.48-.03.71-.07.12-.02.16.02.16.14,0,.35,0,.71,0,1.12Z"/>
          <path class="cls-1" d="M70.95,10.43c.29-.29.62-.54.97-.74.92-.51,1.91-.63,2.94-.45.61.1,1.15.44,1.5.94.29.41.45.89.54,1.39.1.51.12,1.02.12,1.54,0,1.48,0,2.96,0,4.43,0,.23.01.47.05.7.07.35.22.51.58.57.15.02.29.04.44.05.12,0,.15.06.15.17,0,.42,0,.42-.42.42-1.4,0-2.81,0-4.21,0-.15,0-.18-.04-.18-.18,0-.38,0-.38.38-.43.23-.03.47-.04.64-.25.09-.12.13-.25.15-.38.03-.17.04-.34.04-.51,0-1.45,0-2.91,0-4.36,0-.63-.07-1.25-.32-1.83-.23-.53-.61-.88-1.18-1-.65-.14-1.24-.02-1.77.39-.12.1-.2.25-.34.33-.06.04-.05.11-.05.17,0,2.08,0,4.16,0,6.24,0,.21.01.42.05.62.07.37.23.52.61.57.14.02.28.03.42.05.05,0,.13,0,.13.07.01.15.01.31,0,.46,0,.1-.11.06-.17.06-1.04,0-2.09,0-3.13,0-.44,0-.88,0-1.33,0-.11,0-.15-.03-.15-.14,0-.42,0-.42.42-.48.18-.02.36-.04.51-.17.11-.08.17-.21.19-.34.03-.26.07-.52.07-.78,0-1.94,0-3.88,0-5.82,0-.28-.02-.55-.1-.82-.12-.38-.27-.47-.7-.43-.04,0-.08.02-.13.03q-.29.07-.29-.24t.31-.42c.99-.35,2.01-.59,3.06-.67.15-.01.18.03.18.17,0,.34,0,.69,0,1.09Z"/>
          <path class="cls-1" d="M102.09,14.4c.02,1.15-.03,2.06.06,2.97.05.45.13.89.44,1.26.21.25.48.33.78.33.1,0,.16,0,.18.12.01.1.02.17-.1.24-.42.25-.87.42-1.35.45-.84.04-1.52-.07-2.02-.91-.12-.2-.12-.2-.31-.04-.76.62-1.61.98-2.6.96-.46,0-.92-.11-1.33-.33-1.04-.54-1.35-1.66-1.13-2.7.13-.62.46-1.12.93-1.55.66-.61,1.47-.94,2.29-1.25.54-.2,1.09-.33,1.64-.49.13-.04.18-.09.18-.23,0-.53,0-1.06-.14-1.57-.32-1.1-1.21-1.47-2.29-1.09-.61.21-.99.69-1.27,1.26-.11.23-.22.46-.32.69-.04.08-.13.11-.21.07-.02-.01-.04-.03-.05-.04-.21-.31-.39-.62-.48-.99-.02-.05,0-.11.04-.15.86-1.01,1.84-1.83,3.17-2.13.71-.17,1.44-.16,2.15.02.81.21,1.3.75,1.53,1.54.18.59.22,1.2.23,1.81.01.66,0,1.32,0,1.75ZM99.73,16.18c0-.63,0-1.12,0-1.61,0-.11-.02-.17-.15-.17-.66-.01-1.27.15-1.76.61-.68.63-.87,1.77-.46,2.65.29.62.8.91,1.47.83.32-.04.59-.19.84-.39.1-.07.15-.18.12-.3-.07-.59-.08-1.17-.07-1.62h0Z"/>
          <path class="cls-1" d="M45.37,9.16c.6-.02,1.17.08,1.7.37.28.15.52.39.68.67.21.34.33.72.4,1.11.1.59.12,1.18.12,1.78,0,1.31-.03,2.62.03,3.94.02.42.07.84.23,1.23.19.49.52.71,1.04.71.09,0,.13.02.15.11s.04.17-.07.24c-.76.46-1.57.59-2.43.37-.42-.11-.72-.4-.95-.77-.14-.23-.15-.24-.36-.06-.43.36-.92.63-1.45.8-.31.1-.66.12-.99.14-.43.03-.85-.07-1.24-.2-.85-.29-1.43-1.26-1.41-2.24,0-.69.26-1.36.73-1.88.25-.29.57-.52.89-.73.76-.49,1.61-.77,2.47-1.03.29-.09.58-.17.86-.25.09-.02.14-.06.14-.16,0-.56,0-1.12-.15-1.66-.15-.53-.45-.95-1-1.11-.48-.14-.96-.11-1.43.12-.75.38-1.1,1.05-1.4,1.78-.03.08-.04.16-.14.18-.12.02-.17-.05-.23-.14-.17-.28-.34-.56-.41-.88-.01-.06-.02-.11.03-.17.73-.88,1.58-1.6,2.67-2,.49-.18,1-.25,1.52-.26ZM45.91,16.12c0-.66,0-1.11,0-1.55,0-.13-.04-.17-.17-.17-.29,0-.59.03-.87.12-1.42.42-2.04,2.23-1.17,3.43.55.76,1.59.71,2.24.08.05-.05.04-.1.04-.15-.08-.65-.07-1.31-.07-1.75Z"/>
          <path class="cls-1" d="M27.71,14.72c0,.67-.01,1.43.02,2.18.02.42.06.84.2,1.25.09.27.23.51.47.65.17.1.37.19.59.16.07,0,.15-.03.16.09.01.1.05.18-.07.25-.25.14-.51.27-.78.36-.59.19-1.18.16-1.76-.04-.4-.14-.68-.44-.88-.81-.07-.12-.11-.15-.22-.05-.41.37-.89.65-1.41.84-.37.13-.77.16-1.17.18-.55.02-1.06-.14-1.53-.39-.31-.17-.55-.44-.75-.74-.34-.53-.37-1.12-.29-1.72.05-.44.21-.85.47-1.21.28-.38.64-.69,1.04-.95.63-.4,1.31-.68,2.02-.92.41-.14.83-.25,1.24-.37.28-.08.33-.15.28-.44-.02-.09,0-.16,0-.24,0-.47-.04-.93-.21-1.37-.19-.49-.51-.84-1.05-.94-.39-.07-.77-.06-1.17.1-.47.19-.8.49-1.07.89-.21.32-.38.66-.51,1.02-.02.05,0,.15-.09.14s-.2,0-.24-.09c-.12-.29-.29-.56-.39-.86-.06-.18,0-.29.1-.4.27-.28.52-.57.8-.83.2-.18.43-.32.65-.47,1.16-.78,2.43-1.01,3.79-.67.95.23,1.39.93,1.59,1.83.14.65.16,1.3.16,1.96,0,.51,0,1.03,0,1.63ZM25.34,16.05c0-.63,0-1.07,0-1.5,0-.1-.03-.14-.13-.15-.7-.02-1.34.16-1.84.68-.58.6-.69,1.33-.54,2.12.08.46.29.86.71,1.12.55.34,1.24.24,1.79-.23.07-.05.11-.15.09-.24-.08-.66-.07-1.32-.07-1.79Z"/>
          <path class="cls-1" d="M64.19,19.45c-.83,0-1.67,0-2.5,0-.14,0-.17-.04-.17-.17,0-.41,0-.42.41-.46.25-.02.47-.12.68-.24.09-.05.14-.14.17-.23.08-.23.12-.47.1-.72,0-.11.03-.24.03-.36V7.19c0-.33-.01-.65-.1-.97-.1-.4-.39-.52-.79-.57-.15-.02-.3-.05-.45-.08-.05,0-.05-.04-.05-.08,0-.13,0-.27,0-.4,0-.08.04-.09.1-.09.04,0,.09,0,.13,0,1.63,0,3.26,0,4.9,0,.18,0,.27.03.23.23,0,.04,0,.07,0,.11.04.2-.05.27-.24.28-.18.01-.35.04-.53.09-.39.1-.57.39-.56.81,0,.14-.05.28-.06.43-.03,3.47-.03,6.94,0,10.41,0,.26,0,.53.07.79.07.3.2.52.56.59.21.04.42.09.64.13.04,0,.1,0,.11.05.01.16.01.33,0,.49,0,.08-.1.04-.16.04-.84,0-1.68,0-2.52,0Z"/>
          <path class="cls-2" d="M29,24.01h22.31c.25,0,.23-.04.23.23,0,.18.07.4-.04.51-.1.1-.32.03-.48.03-14.79,0-29.59,0-44.38,0-.13,0-.18-.02-.17-.17,0-.16.03-.33-.02-.49-.02-.06.01-.11.08-.11s.13,0,.2,0h22.29Z"/>
          <path class="cls-1" d="M92.94,13.63v4.09c0,.2.02.39.06.58.06.27.22.43.49.48.17.03.35.06.53.07.11,0,.14.05.14.16,0,.43,0,.43-.43.43-1.39,0-2.78,0-4.18,0-.16,0-.22-.02-.22-.2.02-.36,0-.36.36-.4.62-.08.84-.17.85-.96.02-1.91.01-3.81.01-5.72,0-.39.01-.77-.08-1.15-.02-.1-.05-.19-.1-.28-.09-.18-.24-.29-.46-.27-.17.01-.34.05-.5.1-.08.02-.12.03-.09-.09.03-.13.01-.27,0-.4,0-.09.02-.13.11-.16.27-.08.53-.18.79-.26.51-.15,1.03-.28,1.55-.36.33-.05.65-.07.98-.11.14-.02.16.03.16.16,0,1.43,0,2.87,0,4.31h0Z"/>
          <path class="cls-1" d="M18.96,8.64c0,.89-.23,1.6-.66,2.24-.44.66-1.04,1.16-1.73,1.53-.11.06-.15.11-.09.24.33.68.64,1.37.97,2.04.28.56.54,1.13.83,1.69.42.81.81,1.63,1.28,2.42.45.74,1.08,1.2,1.91,1.4.09.02.16.04.14.16s-.09.13-.18.12c-.18-.02-.36-.05-.54-.08-1.14-.25-1.87-1.01-2.49-1.94-.76-1.15-1.33-2.41-1.95-3.64-.35-.71-.7-1.42-1.01-2.14-.06-.14-.04-.2.1-.28,1.1-.62,1.94-1.47,2.25-2.73.26-1.07.16-2.12-.39-3.1-.36-.64-.95-1.01-1.64-1.23-.03,0-.06-.02-.09-.03-.04-.02-.13-.01-.1-.09.02-.06.09-.07.16-.04.41.15.83.25,1.23.43,1.03.47,1.69,1.23,1.91,2.35.04.22.07.44.07.66Z"/>
          <path class="cls-2" d="M91.67,5.28c.77,0,1.42.63,1.43,1.38,0,.82-.6,1.46-1.4,1.47-.87.01-1.37-.6-1.45-1.25-.12-1.01.71-1.63,1.42-1.6Z"/>
          <path class="cls-3" d="M60.68,23.91s-.01-.08.01-.12l.03.09-.04.03Z"/>
          <path class="cls-1" d="M61.42,22.95h-.07c-.14,0-.21.05-.21.21,0,.59,0,1.19,0,1.78v.15c-.3-.56-.63-1.08-.88-1.64-.18-.4-.44-.55-.86-.5-.2.03-.28.07-.28.28,0,.9,0,1.8,0,2.7,0,.11.04.18.15.18.07,0,.15,0,.22,0,.18,0,.24-.07.24-.26-.01-.66-.01-1.33-.02-1.99-.02-.04-.01-.08.01-.12.01.04.02.06.03.09.33.63.68,1.25.99,1.88.13.26.35.4.67.38.26-.02.32-.07.32-.34v-2.54q0-.3-.31-.3Z"/>
          <path class="cls-1" d="M93.48,24.36c-.21-.12-.44-.21-.66-.33-.16-.08-.26-.22-.2-.4s.2-.22.37-.23c.21,0,.39.07.58.16.06.03.12.08.18,0,.1-.15,0-.49-.17-.56-.19-.08-.39-.12-.6-.1-.04,0-.1,0-.16,0-.42.03-.77.3-.85.66-.1.44.05.8.45,1.03.14.08.28.14.43.21.11.05.22.1.31.19.19.18.15.44-.08.57-.08.04-.17.06-.26.07-.26,0-.49-.08-.71-.21-.07-.04-.14-.09-.2.02-.1.2,0,.49.2.58.38.17.81.19,1.2.05.29-.1.5-.29.6-.58.16-.46,0-.88-.42-1.11Z"/>
          <path class="cls-1" d="M103.09,24.36c-.21-.12-.44-.21-.66-.33-.16-.08-.26-.22-.2-.4s.2-.22.37-.23c.21,0,.39.07.58.16.06.03.12.08.18,0,.1-.15,0-.49-.17-.56-.19-.08-.39-.12-.6-.1-.04,0-.1,0-.16,0-.42.03-.77.3-.85.66-.1.44.05.8.45,1.03.14.08.28.14.43.21.11.05.22.1.31.19.19.18.15.44-.08.57-.08.04-.17.06-.26.07-.26,0-.49-.08-.71-.21-.07-.04-.14-.09-.2.02-.1.2,0,.49.2.58.38.17.81.19,1.2.05.29-.1.5-.29.6-.58.16-.46,0-.88-.42-1.11Z"/>
          <path class="cls-1" d="M56.7,25.57h-1.57c-.06,0-.11-.05-.11-.11v-.66c0-.06.05-.11.11-.11h1.38s.07-.03.07-.07v-.33s-.03-.07-.07-.07h-1.38c-.06,0-.11-.05-.11-.11v-.54c0-.06.05-.11.11-.11h1.57s.07-.03.07-.07v-.34s-.03-.07-.07-.07h-1.92c-.08,0-.15.01-.22.04-.06.02-.1.07-.13.13-.03.07-.04.15-.04.22v2.34c0,.14.03.23.09.29.06.06.16.09.29.09h1.92s.07-.03.07-.07v-.35s-.03-.07-.07-.07Z"/>
          <path class="cls-1" d="M66.64,22.96h-2.52s-.07.03-.07.07v.37s.03.07.07.07h.87s.07.03.07.07v2.44s.03.07.07.07h.48s.07-.03.07-.07v-2.44s.03-.07.07-.07h.87s.07-.03.07-.07v-.37s-.03-.07-.07-.07h0Z"/>
          <path class="cls-1" d="M76.09,25.3c-.08-.13-.17-.25-.27-.37-.09-.11-.2-.2-.32-.26.27-.06.46-.16.59-.29s.2-.32.2-.56c0-.11-.02-.22-.06-.32-.04-.1-.1-.19-.17-.27-.07-.08-.16-.14-.26-.18-.09-.04-.18-.06-.27-.07-.12-.01-.24-.02-.36-.02h-1.02c-.14,0-.23.03-.29.09-.06.06-.09.16-.09.29v2.39c0,.13.03.22.08.29.06.07.14.1.23.1.09,0,.17-.03.23-.09.06-.06.09-.16.09-.29v-1h.22c.09,0,.19.01.28.04.08.04.16.09.22.17.09.11.17.23.24.35l.25.42c.06.1.11.17.14.22.03.05.08.09.12.13.05.03.12.05.18.05.05,0,.11-.01.16-.04.04-.02.08-.05.11-.1.02-.04.04-.08.04-.12,0-.04-.02-.11-.07-.22-.05-.12-.12-.24-.19-.35ZM75.33,24.25c-.13.03-.25.04-.38.04h-.56v-.85h.58c.22,0,.36.02.43.05.15.06.25.21.25.38,0,.09-.02.19-.08.26-.06.07-.15.11-.24.13h0Z"/>
          <path class="cls-1" d="M80.86,23.19c-.1-.08-.21-.14-.33-.18-.13-.04-.31-.05-.55-.05h-.81c-.14,0-.24.03-.3.09s-.1.16-.1.3v2.65s.03.07.07.07h.48s.07-.04.07-.08v-1.07s.03-.07.07-.07h.5c.39,0,.68-.08.87-.24s.29-.4.29-.72c0-.14-.02-.27-.07-.4-.04-.11-.12-.22-.21-.3ZM80.42,24.18c-.06.07-.14.13-.23.15-.12.03-.25.05-.37.05h-.35s-.07-.03-.07-.07v-.81s.03-.07.07-.07h.35c.28,0,.47.05.56.14.08.09.13.21.12.33,0,.1-.02.2-.08.28h0Z"/>
          <path class="cls-1" d="M85.89,25.3c-.08-.13-.17-.25-.27-.37-.09-.11-.2-.2-.32-.26.27-.06.46-.16.59-.29s.2-.32.2-.56c0-.11-.02-.22-.06-.32-.04-.1-.1-.19-.17-.27-.07-.08-.16-.14-.26-.18-.09-.04-.18-.06-.27-.07-.12-.01-.24-.02-.36-.02h-1.02c-.14,0-.23.03-.29.09s-.09.16-.09.29v2.72h.63v-1.33h.22c.09,0,.19.01.28.04.08.04.16.09.22.17.09.11.17.23.24.35l.25.42c.04.07.08.13.11.17.04.06.09.1.16.12.1.02.23.01.36,0,.07,0,.12-.07.12-.13h0s-.02-.11-.07-.22c-.05-.12-.12-.24-.19-.35ZM85.13,24.25c-.13.03-.25.04-.38.04h-.56v-.85h.58c.22,0,.36.02.43.05.15.06.25.21.25.38,0,.09-.02.19-.08.26-.06.07-.15.11-.24.13Z"/>
          <rect class="cls-1" x="88.6" y="22.95" width=".63" height="3.11" rx=".07" ry=".07"/>
          <path class="cls-1" d="M71.26,25.57h-1.57c-.06,0-.11-.05-.11-.11v-.66c0-.06.05-.11.11-.11h1.38s.07-.03.07-.07v-.33s-.03-.07-.07-.07h-1.38c-.06,0-.11-.05-.11-.11v-.54c0-.06.05-.11.11-.11h1.57s.07-.03.07-.07v-.34s-.03-.07-.07-.07h-1.92c-.08,0-.15.01-.22.04-.06.02-.1.07-.13.13-.03.07-.04.15-.04.22v2.34c0,.14.03.23.09.29s.16.09.29.09h1.92s.07-.03.07-.07v-.35s-.03-.07-.07-.07Z"/>
          <path class="cls-1" d="M98.86,25.57h-1.57c-.06,0-.11-.05-.11-.11v-.66c0-.06.05-.11.11-.11h1.38s.07-.03.07-.07v-.33s-.03-.07-.07-.07h-1.38c-.06,0-.11-.05-.11-.11v-.54c0-.06.05-.11.11-.11h1.57s.07-.03.07-.07v-.34s-.03-.07-.07-.07h-1.92c-.08,0-.15.01-.22.04-.06.02-.1.07-.13.13-.03.07-.04.15-.04.22v2.34c0,.14.03.23.09.29s.16.09.29.09h1.92s.07-.03.07-.07v-.35s-.03-.07-.07-.07Z"/>
        </g>
      </g>
    </g>
  </g>
</svg>