<svg width="16" height="16" viewBox="0 0 16 16" fill="none" xmlns="http://www.w3.org/2000/svg">
<circle cx="8" cy="8" r="8" fill="#191919"/>
<path d="M10.25 4C10.6562 4 11 4.34375 11 4.75V11.25C11 11.6719 10.6562 12 10.25 12H8.75V10.75C8.75 10.3438 8.40625 10 8 10C7.57812 10 7.25 10.3438 7.25 10.75V12H5.75C5.32812 12 5 11.6719 5 11.25V4.75C5 4.34375 5.32812 4 5.75 4H10.25ZM6 8.25C6 8.39062 6.10938 8.5 6.25 8.5H6.75C6.875 8.5 7 8.39062 7 8.25V7.75C7 7.625 6.875 7.5 6.75 7.5H6.25C6.10938 7.5 6 7.625 6 7.75V8.25ZM7.75 7.5C7.60938 7.5 7.5 7.625 7.5 7.75V8.25C7.5 8.39062 7.60938 8.5 7.75 8.5H8.25C8.375 8.5 8.5 8.39062 8.5 8.25V7.75C8.5 7.625 8.375 7.5 8.25 7.5H7.75ZM9 8.25C9 8.39062 9.10938 8.5 9.25 8.5H9.75C9.875 8.5 10 8.39062 10 8.25V7.75C10 7.625 9.875 7.5 9.75 7.5H9.25C9.10938 7.5 9 7.625 9 7.75V8.25ZM6.25 5.5C6.10938 5.5 6 5.625 6 5.75V6.25C6 6.39062 6.10938 6.5 6.25 6.5H6.75C6.875 6.5 7 6.39062 7 6.25V5.75C7 5.625 6.875 5.5 6.75 5.5H6.25ZM7.5 6.25C7.5 6.39062 7.60938 6.5 7.75 6.5H8.25C8.375 6.5 8.5 6.39062 8.5 6.25V5.75C8.5 5.625 8.375 5.5 8.25 5.5H7.75C7.60938 5.5 7.5 5.625 7.5 5.75V6.25ZM9.25 5.5C9.10938 5.5 9 5.625 9 5.75V6.25C9 6.39062 9.10938 6.5 9.25 6.5H9.75C9.875 6.5 10 6.39062 10 6.25V5.75C10 5.625 9.875 5.5 9.75 5.5H9.25Z" fill="white"/>
</svg>
